<?xml version="1.0" encoding="UTF-8" standalone="no"?>
<svg
   version="1.1"
   id="svg2"
   width="2582.6799"
   height="1462.6801"
   viewBox="0 0 2582.6799 1462.6801"
   sodipodi:docname="sou-program-logo-black-2-12.ai"
   xmlns:inkscape="http://www.inkscape.org/namespaces/inkscape"
   xmlns:sodipodi="http://sodipodi.sourceforge.net/DTD/sodipodi-0.dtd"
   xmlns="http://www.w3.org/2000/svg"
   xmlns:svg="http://www.w3.org/2000/svg">
  <defs
     id="defs6">
    <clipPath
       clipPathUnits="userSpaceOnUse"
       id="clipPath18">
      <path
         d="M 0,1097.008 H 1937.008 V 0 H 0 Z"
         id="path16" />
    </clipPath>
  </defs>
  <sodipodi:namedview
     id="namedview4"
     pagecolor="#ffffff"
     bordercolor="#000000"
     borderopacity="0.25"
     inkscape:showpageshadow="2"
     inkscape:pageopacity="0.0"
     inkscape:pagecheckerboard="0"
     inkscape:deskcolor="#d1d1d1" />
  <g
     id="g8"
     inkscape:groupmode="layer"
     inkscape:label="sou-program-logo-black-2-12"
     transform="matrix(1.3333333,0,0,-1.3333333,0,1462.68)">
    <path
       d="M 0,0 H 1937.008 V 1097.008 H 0 Z"
       style="fill:#1c1d1d;fill-opacity:1;fill-rule:nonzero;stroke:none"
       id="path10" />
    <g
       id="g12">
      <g
         id="g14"
         clip-path="url(#clipPath18)">
        <g
           id="g20"
           transform="translate(675.0367,548.504)">
          <path
             d="m 0,0 c 0,-148.174 -120.119,-268.293 -268.293,-268.293 -148.174,0 -268.292,120.119 -268.292,268.293 0,148.174 120.118,268.293 268.292,268.293 C -120.119,268.293 0,148.174 0,0"
             style="fill:#6fc8f2;fill-opacity:1;fill-rule:nonzero;stroke:none"
             id="path22" />
        </g>
        <g
           id="g24"
           transform="translate(541.5982,569.2838)">
          <path
             d="m 0,0 v 0 c -8.135,0 -14.73,-6.595 -14.73,-14.73 v -171.497 c 0,-8.135 6.595,-14.73 14.73,-14.73 8.135,0 14.729,6.595 14.729,14.73 V -14.73 C 14.729,-6.595 8.135,0 0,0"
             style="fill:#ffffff;fill-opacity:1;fill-rule:nonzero;stroke:none"
             id="path26" />
        </g>
        <g
           id="g28"
           transform="translate(446.2486,528.9083)">
          <path
             d="m 0,0 c -5.302,5.302 -13.899,5.302 -19.201,0 -5.302,-5.303 -5.302,-13.899 0,-19.201 L 6.971,-45.373 H -96.764 c -7.699,0 -13.941,-6.241 -13.941,-13.941 v 0 c 0,-7.7 6.242,-13.941 13.941,-13.941 H 7.497 l -27.224,-27.224 c -5.302,-5.302 -5.302,-13.899 0,-19.201 5.302,-5.302 13.899,-5.302 19.201,0 0,0 50.414,50.414 50.503,50.502 5.302,5.303 5.302,13.9 0,19.201 z"
             style="fill:#ffffff;fill-opacity:1;fill-rule:nonzero;stroke:none"
             id="path30" />
        </g>
        <g
           id="g32"
           transform="translate(271.8897,728.6812)">
          <path
             d="m 0,0 v 0 c -8.135,0 -14.73,-6.595 -14.73,-14.73 v -171.497 c 0,-8.135 6.595,-14.73 14.73,-14.73 8.135,0 14.73,6.595 14.73,14.73 V -14.73 C 14.73,-6.595 8.135,0 0,0"
             style="fill:#ffffff;fill-opacity:1;fill-rule:nonzero;stroke:none"
             id="path34" />
        </g>
        <g
           id="g36"
           transform="translate(367.7652,568.626)">
          <path
             d="m 0,0 c 5.302,-5.302 13.899,-5.302 19.201,0 5.302,5.302 5.302,13.899 0,19.201 L -8.022,46.425 h 104.26 c 7.7,0 13.941,6.242 13.941,13.941 0,7.699 -6.241,13.941 -13.941,13.941 H -7.497 l 26.172,26.171 c 5.303,5.302 5.303,13.899 0,19.202 -5.302,5.302 -13.899,5.302 -19.201,0 L -50.502,69.704 c -5.303,-5.303 -5.303,-13.9 0,-19.202 C -50.414,50.414 0,0 0,0"
             style="fill:#ffffff;fill-opacity:1;fill-rule:nonzero;stroke:none"
             id="path38" />
        </g>
        <g
           id="g40"
           transform="translate(869.0089,752.4595)">
          <path
             d="M 0,0 -43.895,28.859 -30.072,46.806 3.153,24.979 33.467,46.563 45.835,30.072 Z m -8.973,-152.542 h 4.608 c 2.91,0 5.415,0.322 7.518,0.97 8.568,1.614 12.853,6.465 12.853,14.551 0,6.627 -1.86,12.042 -5.578,16.248 -2.751,2.748 -5.577,5.093 -8.488,7.033 -0.97,0.485 -2.952,1.698 -5.941,3.638 -2.994,1.94 -5.457,3.475 -7.397,4.607 -16.654,9.216 -27.81,17.136 -33.467,23.767 -7.761,7.761 -11.641,17.219 -11.641,28.374 0,9.375 3.069,17.5 9.215,24.374 6.143,6.869 13.418,11.799 21.827,14.793 8.405,2.989 17.219,4.486 26.434,4.486 6.95,0 13.012,-0.568 18.189,-1.697 7.435,-1.619 13.012,-2.751 16.733,-3.395 1.456,0 2.668,0.079 3.638,0.242 h 4.608 c 1.94,0 3.312,0.08 4.123,0.242 h 2.667 l 0.243,-49.473 H 22.069 l -1.455,14.309 c 0,0.322 -0.326,2.667 -0.97,7.033 -0.97,3.069 -2.346,5.092 -4.123,6.063 -1.618,0.644 -2.994,1.049 -4.123,1.212 -3.236,0.807 -7.116,1.213 -11.641,1.213 -4.206,0 -8.245,-0.891 -12.125,-2.668 -3.558,-1.94 -5.336,-5.255 -5.336,-9.943 0,-5.335 1.857,-9.621 5.579,-12.854 2.424,-2.425 5.251,-4.607 8.487,-6.547 6.465,-4.206 10.83,-6.953 13.096,-8.245 9.86,-6.147 16.893,-10.592 21.099,-13.339 8.731,-6.306 15.157,-12.41 19.28,-18.31 4.123,-5.904 6.184,-13.459 6.184,-22.675 0,-15.362 -6.669,-27.203 -20.007,-35.529 -13.339,-8.329 -28.174,-12.489 -44.502,-12.489 -6.146,0 -12.209,0.648 -18.189,1.94 -6.468,1.455 -12.125,2.262 -16.976,2.425 l -12.853,-0.728 -0.243,50.686 h 28.86 l 1.455,-16.006 c 0.485,-2.751 1.05,-4.85 1.697,-6.305 0.971,-3.396 2.911,-5.499 5.821,-6.306 2.747,-1.133 6.063,-1.697 9.943,-1.697"
             style="fill:#ffffff;fill-opacity:1;fill-rule:nonzero;stroke:none"
             id="path42" />
        </g>
        <g
           id="g44"
           transform="translate(1004.8165,597.4922)">
          <path
             d="m 0,0 c 17.62,0 26.435,14.793 26.435,44.38 0,4.687 -0.365,9.417 -1.092,14.187 -0.728,4.767 -1.982,9.701 -3.759,14.794 -1.781,5.093 -4.449,9.216 -8.003,12.368 -3.559,3.153 -7.844,4.729 -12.853,4.729 -5.013,0 -9.299,-1.417 -12.854,-4.244 -3.558,-2.831 -6.146,-6.589 -7.761,-11.277 -1.617,-4.691 -2.788,-9.257 -3.515,-13.702 -0.728,-4.449 -1.092,-9.015 -1.092,-13.702 0,-8.245 1.171,-16.734 3.516,-25.464 C -18.636,13.338 -14.877,7.192 -9.7,3.638 -6.79,1.212 -3.558,0 0,0 m -1.213,-21.584 c -19.563,0 -34.922,5.98 -46.078,17.946 -11.155,11.963 -16.733,27.563 -16.733,46.806 0,20.045 6.101,36.619 18.31,49.715 12.205,13.096 28.09,19.644 47.654,19.644 19.723,0 35.325,-5.782 46.806,-17.34 C 60.224,83.626 65.964,68.226 65.964,48.988 65.964,27.321 60.022,10.144 48.14,-2.546 36.256,-15.241 19.803,-21.584 -1.213,-21.584"
             style="fill:#ffffff;fill-opacity:1;fill-rule:nonzero;stroke:none"
             id="path46" />
        </g>
        <g
           id="g48"
           transform="translate(1136.0166,575.9083)">
          <path
             d="m 0,0 c -13.096,0 -22.759,4.202 -28.98,12.611 -6.226,8.405 -9.337,19.481 -9.337,33.224 v 6.306 c 0,4.202 0.079,7.677 0.242,10.428 0,5.494 0.08,9.78 0.243,12.853 0,5.98 0.079,10.345 0.242,13.096 v 11.399 7.032 l -16.006,2.668 c -0.163,0.807 -0.243,2.262 -0.243,4.365 -0.163,1.129 -0.242,2.827 -0.242,5.093 0,2.262 0.079,3.96 0.242,5.093 0,2.099 0.08,3.554 0.243,4.365 L 1.94,133.141 C 1.777,131.686 1.656,128.935 1.576,124.896 1.493,120.853 1.455,117.862 1.455,115.922 0.97,102.986 0.728,83.584 0.728,57.719 1.05,48.34 2.183,41.387 4.123,36.862 c 1.94,-5.013 6.063,-7.518 12.368,-7.518 6.627,0 13.497,1.535 20.613,4.608 v 72.755 l -20.127,2.668 c -0.164,0.807 -0.244,2.341 -0.244,4.607 -0.163,1.129 -0.242,2.827 -0.242,5.093 0,2.262 0.079,3.96 0.242,5.093 0,2.099 0.08,3.554 0.244,4.365 l 59.9,4.608 C 76.552,127.643 76.393,122.387 76.393,117.377 75.907,104.767 75.665,92.235 75.665,79.788 V 46.563 c 0,-9.216 0.079,-16.006 0.242,-20.372 L 93.61,25.707 c 0.161,-0.811 0.244,-2.346 0.244,-4.608 V 10.428 C 93.854,8.162 93.771,6.627 93.61,5.82 L 40.985,-1.698 C 39.689,6.385 38.803,12.448 38.317,16.491 25.059,5.495 12.285,0 0,0"
             style="fill:#ffffff;fill-opacity:1;fill-rule:nonzero;stroke:none"
             id="path50" />
        </g>
        <g
           id="g52"
           transform="translate(860.7637,461.1983)">
          <path
             d="m 0,0 v -50.2 -11.884 c -0.163,-2.751 -0.243,-8.329 -0.243,-16.733 2.099,-0.97 4.123,-1.538 6.063,-1.698 2.262,-0.485 4.123,-0.727 5.578,-0.727 6.95,0 12.648,2.14 17.097,6.427 4.445,4.281 7.435,9.252 8.973,14.914 1.535,5.658 2.304,11.963 2.304,18.916 C 39.772,-21.262 35.244,-7.602 26.191,0 22.796,2.426 18.673,3.638 13.823,3.638 9.943,3.638 5.335,2.426 0,0 M 29.344,-158.848 H 9.215 -6.548 c -3.558,0.163 -7.359,0.243 -11.398,0.243 h -3.881 c -2.588,0 -4.77,-0.08 -6.548,-0.243 H -38.56 -54.324 c -0.163,1.133 -0.242,2.751 -0.242,4.851 v 10.428 c 0,2.266 0.079,3.881 0.242,4.85 l 14.794,0.97 c 0.322,7.438 0.564,16.977 0.727,28.617 0,16.328 0.08,29.102 0.243,38.318 0,9.052 0.08,15.763 0.242,20.128 v 17.947 21.341 c 0,1.777 -0.041,4.365 -0.121,7.76 -0.083,3.396 -0.205,5.821 -0.364,7.276 l -16.248,2.668 c -0.163,0.806 -0.243,2.261 -0.243,4.365 -0.163,1.129 -0.242,2.827 -0.242,5.093 0,2.261 0.079,3.96 0.242,5.092 0,2.1 0.08,3.555 0.243,4.366 L 0.242,29.829 -0.485,16.733 c 10.507,9.216 21.099,13.824 31.769,13.824 10.671,0 19.765,-3.195 27.283,-9.579 7.518,-6.389 12.891,-14.108 16.127,-23.161 3.233,-9.056 4.851,-18.756 4.851,-29.101 0,-21.342 -6.631,-38.723 -19.886,-52.141 C 46.4,-96.847 29.261,-103.554 8.245,-103.554 H 4.123 c -0.485,0 -1.213,0.041 -2.183,0.121 -0.97,0.083 -1.698,0.204 -2.183,0.365 V -121.5 c 0,-7.112 0.08,-12.285 0.243,-15.521 l 29.344,-1.212 c 0.159,-1.13 0.242,-2.747 0.242,-4.851 v -10.428 c 0,-2.425 -0.083,-4.203 -0.242,-5.336"
             style="fill:#ffffff;fill-opacity:1;fill-rule:nonzero;stroke:none"
             id="path54" />
        </g>
        <g
           id="g56"
           transform="translate(1056.9561,488.3604)">
          <path
             d="m 0,0 -3.638,-31.527 c -6.791,1.129 -12.774,1.698 -17.946,1.698 -8.409,0 -16.817,-1.456 -25.222,-4.366 v -50.686 c 0,-4.365 0.079,-7.681 0.243,-9.943 v -11.883 l 26.434,-0.97 c 0.159,-0.648 0.28,-1.539 0.363,-2.668 0.08,-1.133 0.122,-2.023 0.122,-2.668 v -6.062 -4.609 c -0.163,-1.132 -0.243,-2.667 -0.243,-4.607 h -8.487 c -5.177,0 -9.216,0.08 -12.126,0.243 h -13.339 -18.43 -9.458 c -2.426,-0.163 -5.905,-0.243 -10.429,-0.243 h -8.731 c -0.163,1.13 -0.242,2.827 -0.242,5.093 v 10.428 c 0,2.099 0.079,3.638 0.242,4.608 l 14.793,0.97 c 0.486,13.74 0.729,27.563 0.729,41.47 v 21.099 c 0,9.537 -0.084,16.491 -0.243,20.856 -3.236,0.485 -6.146,0.97 -8.731,1.455 -3.558,0.645 -6.063,1.05 -7.518,1.213 -0.162,0.807 -0.242,2.262 -0.242,4.366 -0.163,1.129 -0.243,2.826 -0.243,5.092 0,2.262 0.08,3.96 0.243,5.093 0,2.099 0.08,3.554 0.242,4.365 l 48.261,4.366 c 1.292,-2.588 2.584,-5.821 3.88,-9.702 0.97,-3.879 1.698,-6.873 2.183,-8.972 0.806,0.806 2.061,1.977 3.759,3.516 1.698,1.535 2.948,2.705 3.758,3.517 9.538,8.567 18.106,12.853 25.707,12.853 C -8.974,3.395 -4.206,2.262 0,0"
             style="fill:#ffffff;fill-opacity:1;fill-rule:nonzero;stroke:none"
             id="path58" />
        </g>
        <g
           id="g60"
           transform="translate(1126.5557,379.2285)">
          <path
             d="m 0,0 c 17.62,0 26.434,14.793 26.434,44.38 0,4.687 -0.364,9.417 -1.091,14.187 -0.728,4.767 -1.983,9.701 -3.76,14.793 -1.78,5.093 -4.448,9.216 -8.002,12.369 -3.559,3.153 -7.845,4.729 -12.853,4.729 -5.014,0 -9.3,-1.417 -12.854,-4.244 -3.559,-2.831 -6.146,-6.59 -7.761,-11.277 -1.618,-4.691 -2.789,-9.257 -3.516,-13.703 -0.728,-4.448 -1.091,-9.014 -1.091,-13.702 0,-8.245 1.171,-16.733 3.516,-25.464 2.341,-8.73 6.101,-14.877 11.277,-18.43 C -6.791,1.212 -3.559,0 0,0 m -1.213,-21.584 c -19.564,0 -34.922,5.98 -46.078,17.946 -11.155,11.963 -16.733,27.564 -16.733,46.806 0,20.045 6.1,36.619 18.309,49.715 12.206,13.096 28.091,19.643 47.654,19.643 19.724,0 35.325,-5.782 46.806,-17.339 C 60.223,83.626 65.964,68.226 65.964,48.988 65.964,27.32 60.022,10.144 48.139,-2.547 36.256,-15.241 19.803,-21.584 -1.213,-21.584"
             style="fill:#ffffff;fill-opacity:1;fill-rule:nonzero;stroke:none"
             id="path62" />
        </g>
        <g
           id="g64"
           transform="translate(1259.6953,419.001)">
          <path
             d="m 0,0 c 5.979,0 10.75,2.505 14.309,7.518 3.554,5.009 5.336,10.67 5.336,16.976 0,3.395 -0.407,7.112 -1.213,11.155 C 16.328,42.762 12.934,47.854 8.246,50.928 5.82,52.383 3.069,53.11 0,53.11 c -6.146,0 -10.875,-2.993 -14.187,-8.972 -3.316,-5.984 -4.971,-12.289 -4.971,-18.916 0,-5.984 1.777,-11.683 5.335,-17.098 C -10.269,2.705 -5.661,0 0,0 m 32.982,-78.333 c 0,4.206 -1.781,7.117 -5.336,8.73 -6.79,3.722 -17.217,5.742 -31.284,6.064 -6.305,0.162 -12.289,0.891 -17.946,2.183 -4.527,-6.465 -6.79,-12.612 -6.79,-18.432 0,-7.112 2.626,-12.447 7.882,-16.006 5.252,-3.555 11.598,-5.335 19.037,-5.335 4.851,0 9.296,0.484 13.339,1.455 4.365,1.296 8.003,2.83 10.913,4.608 2.91,2.103 5.415,4.528 7.517,7.275 1.778,3.073 2.668,6.226 2.668,9.458 M 0,72.754 c 11.479,0 21.421,-2.103 29.829,-6.305 l 38.803,2.667 c 0.159,-0.97 0.243,-2.588 0.243,-4.849 V 53.353 c 0,-2.266 -0.084,-3.963 -0.243,-5.092 H 48.261 c 1.94,-3.559 3.395,-7.36 4.365,-11.399 0.808,-4.365 1.213,-8.409 1.213,-12.126 0,-11.156 -4.244,-20.655 -12.733,-28.495 -8.487,-7.845 -18.472,-12.895 -29.95,-15.157 -3.721,-1.618 -5.983,-2.668 -6.791,-3.153 -3.88,-2.103 -5.903,-3.236 -6.062,-3.396 -2.588,-1.939 -4.043,-2.993 -4.365,-3.152 -1.133,-1.133 -1.699,-2.024 -1.699,-2.668 0,-2.103 1.858,-3.558 5.578,-4.365 4.688,-0.97 9.216,-1.538 13.581,-1.698 14.71,-0.648 26.514,-2.265 35.408,-4.85 12.769,-4.043 19.159,-11.883 19.159,-23.524 0,-11.64 -3.801,-21.948 -11.399,-30.921 -7.601,-8.973 -17.139,-15.559 -28.617,-19.765 -8.893,-3.232 -18.757,-4.85 -29.587,-4.85 -6.305,0 -12.451,0.527 -18.43,1.576 -5.984,1.054 -12.005,2.751 -18.068,5.093 -6.063,2.346 -10.913,5.942 -14.551,10.792 -3.637,4.851 -5.457,10.671 -5.457,17.461 0,6.469 2.384,12.452 7.155,17.946 4.766,5.498 10.466,9.944 17.097,13.339 -2.425,1.613 -4.123,3.554 -5.092,5.821 -1.134,2.098 -1.699,4.202 -1.699,6.304 0,3.881 2.991,8.246 8.974,13.096 3.069,2.263 6.142,4.203 9.215,5.82 4.85,2.263 8.647,3.96 11.398,5.094 -12.451,1.939 -22.273,6.748 -29.466,14.43 -7.195,7.676 -10.792,17.661 -10.792,29.95 0,13.255 5.537,24.452 16.613,33.588 11.072,9.133 23.32,13.702 36.741,13.702"
             style="fill:#ffffff;fill-opacity:1;fill-rule:nonzero;stroke:none"
             id="path66" />
        </g>
        <g
           id="g68"
           transform="translate(1441.3369,488.3604)">
          <path
             d="m 0,0 -3.638,-31.527 c -6.79,1.129 -12.773,1.698 -17.946,1.698 -8.408,0 -16.816,-1.456 -25.222,-4.366 v -50.686 c 0,-4.365 0.08,-7.681 0.243,-9.943 v -11.883 l 26.434,-0.97 c 0.159,-0.648 0.28,-1.539 0.364,-2.668 0.079,-1.133 0.121,-2.023 0.121,-2.668 v -6.062 -4.609 c -0.163,-1.132 -0.242,-2.667 -0.242,-4.607 h -8.488 c -5.177,0 -9.216,0.08 -12.126,0.243 h -13.338 -18.432 -9.458 c -2.424,-0.163 -5.904,-0.243 -10.428,-0.243 h -8.73 c -0.163,1.13 -0.243,2.827 -0.243,5.093 v 10.428 c 0,2.099 0.08,3.638 0.243,4.608 l 14.793,0.97 c 0.486,13.74 0.728,27.563 0.728,41.47 v 21.099 c 0,9.537 -0.084,16.491 -0.242,20.856 -3.237,0.485 -6.147,0.97 -8.732,1.455 -3.557,0.645 -6.062,1.05 -7.517,1.213 -0.164,0.807 -0.243,2.262 -0.243,4.366 -0.163,1.129 -0.243,2.826 -0.243,5.092 0,2.262 0.08,3.96 0.243,5.093 0,2.099 0.079,3.554 0.243,4.365 l 48.26,4.366 c 1.292,-2.588 2.584,-5.821 3.88,-9.702 0.971,-3.879 1.698,-6.873 2.183,-8.972 0.807,0.806 2.061,1.977 3.759,3.516 1.698,1.535 2.948,2.705 3.759,3.517 9.537,8.567 18.105,12.853 25.706,12.853 C -8.973,3.395 -4.206,2.262 0,0"
             style="fill:#ffffff;fill-opacity:1;fill-rule:nonzero;stroke:none"
             id="path70" />
        </g>
        <g
           id="g72"
           transform="translate(1510.4502,384.0782)">
          <path
             d="m 0,0 v 27.162 c -10.349,0 -17.382,-2.588 -21.099,-7.761 -1.455,-2.102 -2.182,-4.69 -2.182,-7.759 0,-4.529 1.171,-8.208 3.516,-11.036 2.342,-2.83 5.699,-4.244 10.065,-4.244 4.039,0 7.275,1.213 9.7,3.638 m -28.617,57.961 h -25.222 c -1.617,4.688 -2.425,9.943 -2.425,15.764 0,10.993 5.294,19.401 15.885,25.222 10.587,5.821 21.948,8.73 34.073,8.73 23.283,0 37.67,-8.814 43.168,-26.434 1.292,-5.177 1.941,-9.784 1.941,-13.823 C 38.64,59.659 38.56,49.391 38.56,36.62 V -0.97 l 16.491,-0.485 c 0,-1.94 0.08,-3.395 0.243,-4.365 v -4.123 -4.122 c -0.163,-0.97 -0.243,-2.346 -0.243,-4.123 L 5.335,-27.161 1.94,-13.581 c -7.76,-8.893 -17.704,-13.338 -29.829,-13.338 -9.864,0 -18.151,2.948 -24.858,8.852 -6.711,5.9 -10.065,13.619 -10.065,23.16 0,7.434 2.062,13.862 6.185,19.28 4.123,5.415 9.579,9.496 16.369,12.247 6.791,2.747 13.46,4.73 20.008,5.942 6.548,1.212 13.46,1.978 20.735,2.303 v 13.339 c 0,3.717 -0.163,6.791 -0.485,9.216 -0.325,2.425 -0.97,5.13 -1.94,8.124 -0.97,2.989 -2.629,5.252 -4.971,6.79 -2.346,1.535 -5.298,2.304 -8.853,2.304 -4.365,0 -7.722,-1.295 -10.064,-3.88 -2.345,-2.588 -3.517,-6.147 -3.517,-10.671 0,-2.103 0.08,-3.88 0.243,-5.335 0,-1.296 0.16,-3.559 0.485,-6.791"
             style="fill:#ffffff;fill-opacity:1;fill-rule:nonzero;stroke:none"
             id="path74" />
        </g>
        <g
           id="g76"
           transform="translate(1781.3389,381.4112)">
          <path
             d="m 0,0 16.976,-0.728 c 0.16,-0.97 0.242,-2.588 0.242,-4.85 v -10.671 c 0,-2.425 -0.082,-4.123 -0.242,-5.093 H 3.396 c -5.013,0 -8.815,0.08 -11.399,0.243 h -9.458 -12.368 c -4.206,-0.163 -11.399,-0.243 -21.584,-0.243 -0.164,1.13 -0.242,2.827 -0.242,5.093 V -5.82 c 0,2.098 0.078,3.637 0.242,4.607 l 12.368,0.97 c 0.159,1.455 0.28,3.76 0.364,6.912 0.079,3.152 0.12,5.536 0.12,7.154 v 15.521 25.464 c 0,3.554 -0.162,6.506 -0.484,8.852 -0.326,2.342 -0.971,5.01 -1.94,8.003 -0.97,2.99 -2.546,5.252 -4.729,6.79 -2.183,1.535 -4.973,2.305 -8.366,2.305 -5.821,0 -13.181,-1.862 -22.07,-5.578 0.485,-3.237 0.727,-6.632 0.727,-10.186 V 48.745 c -0.162,-3.88 -0.242,-9.621 -0.242,-17.219 V 15.035 C -75.828,11.314 -75.907,6.305 -75.907,0 l 15.52,-0.728 c 0.159,-0.97 0.243,-2.588 0.243,-4.85 v -10.671 c 0,-2.425 -0.084,-4.123 -0.243,-5.093 h -12.852 c -4.851,0 -8.489,0.08 -10.913,0.243 h -9.217 -12.125 c -4.043,-0.163 -10.834,-0.243 -20.372,-0.243 -0.162,1.13 -0.242,2.827 -0.242,5.093 V -5.82 c 0,2.098 0.08,3.637 0.242,4.607 l 10.913,0.97 c 0.16,1.455 0.281,3.76 0.364,6.912 0.08,3.152 0.122,5.536 0.122,7.154 v 15.521 25.464 c 0,3.554 -0.164,6.506 -0.486,8.852 -0.324,2.342 -0.969,5.01 -1.94,8.003 -0.969,2.99 -2.546,5.252 -4.729,6.79 -2.182,1.535 -4.971,2.305 -8.366,2.305 -5.177,0 -11.482,-1.539 -18.917,-4.609 V 24.494 c 0,-10.834 0.08,-19.08 0.244,-24.737 l 14.064,-0.485 c 0.16,-0.648 0.281,-1.539 0.365,-2.668 0.08,-1.132 0.122,-2.023 0.122,-2.667 v -6.063 -4.608 c -0.164,-1.133 -0.244,-2.667 -0.244,-4.608 h -13.823 c -5.012,0 -8.814,0.08 -11.397,0.243 h -9.459 -3.88 -6.064 c -1.78,-0.163 -5.012,-0.243 -9.7,-0.243 h -14.308 c -0.163,1.13 -0.243,2.827 -0.243,5.093 V -5.82 c 0,2.098 0.08,3.637 0.243,4.607 l 14.793,0.97 c 0.485,14.066 0.728,27.97 0.728,41.713 v 20.856 c 0,9.537 -0.084,16.491 -0.243,20.857 l -17.461,2.668 c -0.163,0.806 -0.243,2.261 -0.243,4.365 -0.162,1.129 -0.242,2.826 -0.242,5.093 0,2.261 0.08,3.96 0.242,5.092 0,2.099 0.08,3.554 0.243,4.366 l 56.507,4.607 v -7.033 c -0.164,-1.78 -0.244,-4.285 -0.244,-7.518 12.933,10.345 25.221,15.521 36.863,15.521 14.551,0 24.979,-6.468 31.285,-19.402 15.035,12.934 29.908,19.402 44.621,19.402 4.851,0 9.701,-0.891 14.551,-2.667 4.204,-1.941 8.084,-4.771 11.642,-8.489 C -2.994,90.617 0.485,79.219 0.485,64.994 V 48.745 C 0.321,44.865 0.242,39.124 0.242,31.526 V 15.035 C 0.079,11.314 0,6.305 0,0"
             style="fill:#ffffff;fill-opacity:1;fill-rule:nonzero;stroke:none"
             id="path78" />
        </g>
      </g>
    </g>
  </g>
</svg>
